<svg xmlns="http://www.w3.org/2000/svg" width="1088" height="687.962" viewBox="0 0 1088 687.962">
  <style type="text/css">.st0{fill-rule:evenodd;clip-rule:evenodd;}</style>
  <g id="Group_12" data-name="Group 12" transform="translate(-57 -56)">
    <g id="Group_11" data-name="Group 11" transform="translate(57 56)">
      <path id="Path_83" data-name="Path 83" d="M1017.81,560.461c-5.27,45.15-16.22,81.4-31.25,110.31-20,38.52-54.21,54.04-84.77,70.28a193.275,193.275,0,0,1-27.46,11.94c-55.61,19.3-117.85,14.18-166.74,3.99a657.282,657.282,0,0,0-104.09-13.16q-14.97-.675-29.97-.67c-15.42.02-293.07,5.29-360.67-131.57-16.69-33.76-28.13-75-32.24-125.27-11.63-142.12,52.29-235.46,134.74-296.47,155.97-115.41,369.76-110.57,523.43,7.88C941.15,276.621,1036.99,396.031,1017.81,560.461Z" transform="translate(-56 -106.019)" fill="#3f3d56"/>
      <path id="Path_84" data-name="Path 84" d="M986.56,670.771c-20,38.52-47.21,64.04-77.77,80.28a193.272,193.272,0,0,1-27.46,11.94c-55.61,19.3-117.85,14.18-166.74,3.99a657.3,657.3,0,0,0-104.09-13.16q-14.97-.675-29.97-.67-23.13.03-46.25,1.72c-100.17,7.36-253.82-6.43-321.42-143.29L382,283.981,444.95,445.6l20.09,51.59,55.37-75.98L549,381.981l130.2,149.27,36.8-81.27L970.78,657.9l14.21,11.59Z" transform="translate(-56 -106.019)" fill="#f2f2f2"/>
      <path id="Path_85" data-name="Path 85" d="M302,282.962l26-57,36,83-31-60Z" opacity="0.1"/>
      <path id="Path_86" data-name="Path 86" d="M610.5,753.821q-14.97-.675-29.97-.67L465.04,497.191Z" transform="translate(-56 -106.019)" opacity="0.1"/>
      <path id="Path_87" data-name="Path 87" d="M464.411,315.191,493,292.962l130,150-132-128Z" opacity="0.1"/>
      <path id="Path_88" data-name="Path 88" d="M908.79,751.051a193.265,193.265,0,0,1-27.46,11.94L679.2,531.251Z" transform="translate(-56 -106.019)" opacity="0.1"/>
      <circle id="Ellipse_11" data-name="Ellipse 11" cx="3" cy="3" r="3" transform="translate(479 98.962)" fill="#f2f2f2"/>
      <circle id="Ellipse_12" data-name="Ellipse 12" cx="3" cy="3" r="3" transform="translate(396 201.962)" fill="#f2f2f2"/>
      <circle id="Ellipse_13" data-name="Ellipse 13" cx="2" cy="2" r="2" transform="translate(600 220.962)" fill="#f2f2f2"/>
      <circle id="Ellipse_14" data-name="Ellipse 14" cx="2" cy="2" r="2" transform="translate(180 265.962)" fill="#f2f2f2"/>
      <circle id="Ellipse_15" data-name="Ellipse 15" cx="2" cy="2" r="2" transform="translate(612 96.962)" fill="#f2f2f2"/>
      <circle id="Ellipse_16" data-name="Ellipse 16" cx="2" cy="2" r="2" transform="translate(736 192.962)" fill="#f2f2f2"/>
      <circle id="Ellipse_17" data-name="Ellipse 17" cx="2" cy="2" r="2" transform="translate(858 344.962)" fill="#f2f2f2"/>
      <path id="Path_89" data-name="Path 89" d="M306,121.222h-2.76v-2.76h-1.48v2.76H299V122.7h2.76v2.759h1.48V122.7H306Z" fill="#f2f2f2"/>
      <path id="Path_90" data-name="Path 90" d="M848,424.222h-2.76v-2.76h-1.48v2.76H841V425.7h2.76v2.759h1.48V425.7H848Z" fill="#f2f2f2"/>
      <path id="Path_91" data-name="Path 91" d="M1144,719.981c0,16.569-243.557,74-544,74s-544-57.431-544-74,243.557,14,544,14S1144,703.413,1144,719.981Z" transform="translate(-56 -106.019)" fill="#3f3d56"/>
      <path id="Path_92" data-name="Path 92" d="M1144,719.981c0,16.569-243.557,74-544,74s-544-57.431-544-74,243.557,14,544,14S1144,703.413,1144,719.981Z" transform="translate(-56 -106.019)" opacity="0.1"/>
      <ellipse id="Ellipse_18" data-name="Ellipse 18" cx="544" cy="30" rx="544" ry="30" transform="translate(0 583.962)" fill="#3f3d56"/>
      <path id="Path_93" data-name="Path 93" d="M624,677.981c0,33.137-14.775,24-33,24s-33,9.137-33-24,33-96,33-96S624,644.844,624,677.981Z" transform="translate(-56 -106.019)" fill="#ff6584"/>
      <path id="Path_94" data-name="Path 94" d="M606,690.66c0,15.062-6.716,10.909-15,10.909s-15,4.153-15-10.909,15-43.636,15-43.636S606,675.6,606,690.66Z" transform="translate(-56 -106.019)" opacity="0.1"/>
      <rect id="Rectangle_97" data-name="Rectangle 97" width="92" height="18" rx="9" transform="translate(489 604.962)" fill="#2f2e41"/>
      <rect id="Rectangle_98" data-name="Rectangle 98" width="92" height="18" rx="9" transform="translate(489 586.962)" fill="#2f2e41"/>
      <path id="Path_95" data-name="Path 95" d="M193,596.547c0,55.343,34.719,100.126,77.626,100.126" transform="translate(-56 -106.019)" fill="#3f3d56"/>
      <path id="Path_96" data-name="Path 96" d="M270.626,696.673c0-55.965,38.745-101.251,86.626-101.251" transform="translate(-56 -106.019)" fill="#6c63ff"/>
      <path id="Path_97" data-name="Path 97" d="M221.125,601.564c0,52.57,22.14,95.109,49.5,95.109" transform="translate(-56 -106.019)" fill="#6c63ff"/>
      <path id="Path_98" data-name="Path 98" d="M270.626,696.673c0-71.511,44.783-129.377,100.126-129.377" transform="translate(-56 -106.019)" fill="#3f3d56"/>
      <path id="Path_99" data-name="Path 99" d="M254.3,697.379s11.009-.339,14.326-2.7,16.934-5.183,17.757-1.395,16.544,18.844,4.115,18.945-28.879-1.936-32.19-3.953S254.3,697.379,254.3,697.379Z" transform="translate(-56 -106.019)" fill="#a8a8a8"/>
      <path id="Path_100" data-name="Path 100" d="M290.716,710.909c-12.429.1-28.879-1.936-32.19-3.953-2.522-1.536-3.527-7.048-3.863-9.591l-.368.014s.7,8.879,4.009,10.9,19.761,4.053,32.19,3.953c3.588-.029,4.827-1.305,4.759-3.2C294.755,710.174,293.386,710.887,290.716,710.909Z" transform="translate(-56 -106.019)" opacity="0.2"/>
      <path id="Path_101" data-name="Path 101" d="M777.429,633.081c0,38.029,23.857,68.8,53.341,68.8" transform="translate(-56 -106.019)" fill="#3f3d56"/>
      <path id="Path_102" data-name="Path 102" d="M830.769,701.882c0-38.456,26.623-69.575,59.525-69.575" transform="translate(-56 -106.019)" fill="#6c63ff"/>
      <path id="Path_103" data-name="Path 103" d="M796.755,636.528c0,36.124,15.213,65.354,34.014,65.354" transform="translate(-56 -106.019)" fill="#6c63ff"/>
      <path id="Path_104" data-name="Path 104" d="M830.769,701.882c0-49.139,30.773-88.9,68.8-88.9" transform="translate(-56 -106.019)" fill="#3f3d56"/>
      <path id="Path_105" data-name="Path 105" d="M819.548,702.367s7.565-.233,9.844-1.856,11.636-3.562,12.2-.958,11.368,12.949,2.828,13.018-19.844-1.33-22.119-2.716S819.548,702.367,819.548,702.367Z" transform="translate(-56 -106.019)" fill="#a8a8a8"/>
      <path id="Path_106" data-name="Path 106" d="M844.574,711.664c-8.54.069-19.844-1.33-22.119-2.716-1.733-1.056-2.423-4.843-2.654-6.59l-.253.01s.479,6.1,2.755,7.487,13.579,2.785,22.119,2.716c2.465-.02,3.317-.9,3.27-2.2C847.349,711.159,846.409,711.649,844.574,711.664Z" transform="translate(-56 -106.019)" opacity="0.2"/>
      <path id="Path_107" data-name="Path 107" d="M949.813,724.718s11.36-1.729,14.5-4.591,16.89-7.488,18.217-3.667,19.494,17.447,6.633,19.107-30.153,1.609-33.835-.065S949.813,724.718,949.813,724.718Z" transform="translate(-56 -106.019)" fill="#a8a8a8"/>
      <path id="Path_108" data-name="Path 108" d="M989.228,734.173c-12.86,1.659-30.153,1.609-33.835-.065-2.8-1.275-4.535-6.858-5.2-9.45l-.379.061s1.833,9.109,5.516,10.783,20.975,1.725,33.835.065c3.712-.479,4.836-1.956,4.529-3.906C993.319,732.907,991.991,733.817,989.228,734.173Z" transform="translate(-56 -106.019)" opacity="0.2"/>
      <path id="Path_109" data-name="Path 109" d="M670.26,723.9s9.587-1.459,12.237-3.875,14.255-6.32,15.374-3.095,16.452,14.725,5.6,16.125-25.448,1.358-28.555-.055S670.26,723.9,670.26,723.9Z" transform="translate(-56 -106.019)" fill="#a8a8a8"/>
      <path id="Path_110" data-name="Path 110" d="M703.524,731.875c-10.853,1.4-25.448,1.358-28.555-.055-2.367-1.076-3.827-5.788-4.39-7.976l-.32.051s1.547,7.687,4.655,9.1,17.7,1.456,28.555.055c3.133-.4,4.081-1.651,3.822-3.3C706.977,730.807,705.856,731.575,703.524,731.875Z" transform="translate(-56 -106.019)" opacity="0.2"/>
      <path id="Path_111" data-name="Path 111" d="M178.389,719.109s7.463-1.136,9.527-3.016,11.1-4.92,11.969-2.409,12.808,11.463,4.358,12.553-19.811,1.057-22.23-.043S178.389,719.109,178.389,719.109Z" transform="translate(-56 -106.019)" fill="#a8a8a8"/>
      <path id="Path_112" data-name="Path 112" d="M204.285,725.321c-8.449,1.09-19.811,1.057-22.23-.043-1.842-.838-2.979-4.506-3.417-6.209l-.249.04s1.2,5.984,3.624,7.085,13.781,1.133,22.23.043c2.439-.315,3.177-1.285,2.976-2.566C206.973,724.489,206.1,725.087,204.285,725.321Z" transform="translate(-56 -106.019)" opacity="0.2"/>
      <path id="Path_113" data-name="Path 113" d="M439.7,707.337c0,30.22-42.124,20.873-93.7,20.873s-93.074,9.347-93.074-20.873,42.118-36.793,93.694-36.793S439.7,677.117,439.7,707.337Z" transform="translate(-56 -106.019)" opacity="0.1"/>
      <path id="Path_114" data-name="Path 114" d="M439.7,699.9c0,30.22-42.124,20.873-93.7,20.873s-93.074,9.347-93.074-20.873S295.04,663.1,346.616,663.1,439.7,669.676,439.7,699.9Z" transform="translate(-56 -106.019)" fill="#3f3d56"/>
    </g>
  </g>
  <g fill-rule="nonzero" transform="translate(20.274 100.733)"><path d="m352.64 357.25c-4.274 17.143-21.637 27.576-38.782 23.301-17.138-4.274-27.571-21.638-23.295-38.78 4.272-17.145 21.635-27.579 38.775-23.305 17.144 4.274 27.576 21.64 23.302 38.784z" fill="#f7931a"/><path d="m335.71 344.95c.637-4.258-2.605-6.547-7.038-8.074l1.438-5.768-3.511-.875-1.4 5.616c-.923-.23-1.871-.447-2.813-.662l1.41-5.653-3.509-.875-1.439 5.766c-.764-.174-1.514-.346-2.242-.527l.004-.018-4.842-1.209-.934 3.75s2.605.597 2.55.634c1.422.355 1.679 1.296 1.636 2.042l-1.638 6.571c.098.025.225.061.365.117-.117-.029-.242-.061-.371-.092l-2.296 9.205c-.174.432-.615 1.08-1.609.834.035.051-2.552-.637-2.552-.637l-1.743 4.019 4.569 1.139c.85.213 1.683.436 2.503.646l-1.453 5.834 3.507.875 1.439-5.772c.958.26 1.888.5 2.798.726l-1.434 5.745 3.511.875 1.453-5.823c5.987 1.133 10.489.676 12.384-4.739 1.527-4.36-.076-6.875-3.226-8.515 2.294-.529 4.022-2.038 4.483-5.155zm-8.022 11.249c-1.085 4.36-8.426 2.003-10.806 1.412l1.928-7.729c2.38.594 10.012 1.77 8.878 6.317zm1.086-11.312c-.99 3.966-7.1 1.951-9.082 1.457l1.748-7.01c1.982.494 8.365 1.416 7.334 5.553z" fill="#fff"/><path d="m164.953 45.855c0-3.669.594-7.129 1.781-10.368 1.185-3.242 2.892-6.077 5.107-8.51 2.207-2.421 4.896-4.339 8.061-5.747 3.15-1.4 6.677-2.106 10.564-2.106 2.433 0 4.606.23 6.518.691 1.92.465 3.657 1.066 5.228 1.82l-4.134 9.4c-1.08-.438-2.201-.824-3.36-1.174-1.16-.357-2.576-.529-4.251-.529-4.001 0-7.164 1.379-9.518 4.128-2.345 2.751-3.526 6.454-3.526 11.099 0 2.753.594 4.979 1.786 6.682 1.186 1.703 3.377 2.55 6.558 2.55 1.57 0 3.085-.164 4.536-.484 1.462-.324 2.753-.732 3.89-1.214l.895 9.636c-1.516.588-3.188 1.119-5.022 1.584-1.838.449-4.026.682-6.563.682-3.349 0-6.184-.49-8.503-1.455-2.32-.98-4.237-2.281-5.747-3.929-1.518-1.652-2.608-3.581-3.282-5.795-.674-2.212-1.018-4.536-1.018-6.961zm53.25 18.14c-2.861 0-5.346-.436-7.454-1.299-2.102-.863-3.843-2.074-5.22-3.644-1.379-1.562-2.411-3.413-3.118-5.546-.707-2.132-1.047-4.493-1.047-7.08 0-3.245.521-6.489 1.574-9.724 1.048-3.242 2.603-6.155 4.661-8.744 2.042-2.593 4.561-4.713 7.527-6.366 2.963-1.642 6.371-2.468 10.199-2.468 2.809 0 5.281.437 7.418 1.3 2.127.861 3.879 2.082 5.264 3.644 1.37 1.57 2.411 3.413 3.111 5.549.705 2.128 1.053 4.495 1.053 7.084 0 3.235-.514 6.479-1.534 9.724-1.021 3.229-2.536 6.149-4.536 8.744-1.996 2.589-4.492 4.708-7.49 6.354-2.994 1.646-6.466 2.472-10.408 2.472zm-124.43-44.63c2.595 0 4.837.465 6.721 1.378 1.893.922 3.455 2.164 4.708 3.726 1.236 1.57 2.156 3.405 2.75 5.508.59 2.109.886 4.376.886 6.803 0 3.728-.683 7.25-2.062 10.57-1.379 3.325-3.25 6.209-5.63 8.669-2.378 2.457-5.186 4.394-8.424 5.825-3.233 1.432-6.748 2.148-10.522 2.148-.488 0-1.346-.014-2.558-.039s-2.605-.15-4.165-.361c-1.57-.219-3.23-.543-4.983-.977-1.752-.426-3.416-1.023-4.983-1.781l14.012-58.876 12.55-1.945-5.017 20.893c1.074-.484 2.156-.859 3.236-1.132 1.08-.269 2.24-.409 3.481-.409zm58.262.901h13.446l-2.428 9.878h-13.365l-3.56 14.9c-.328 1.242-.514 2.402-.566 3.48-.059 1.083.078 2.013.402 2.796.322.785.901 1.39 1.741 1.818.836.435 2.033.654 3.603.654 1.293 0 2.553-.123 3.771-.367 1.211-.24 2.438-.574 3.68-1.011l.894 9.236c-1.62.594-3.374 1.105-5.264 1.535-1.893.436-4.134.646-6.724.646-3.724 0-6.611-.553-8.668-1.654-2.054-1.109-3.506-2.624-4.375-4.542-.857-1.911-1.24-4.114-1.133-6.596.111-2.488.486-5.103 1.133-7.857l7.941-33.527 12.555-1.945zm-30.182 42.599h-11.987l10.123-42.597h12.069zm133.38 0h-11.997l10.123-42.597h12.075zm18.84-40.66c.91-.266 1.926-.586 3.031-.934 1.109-.348 2.348-.672 3.732-.964 1.369-.301 2.914-.545 4.613-.734 1.699-.193 3.635-.287 5.786-.287 6.322 0 10.68 1.841 13.086 5.512 2.404 3.671 2.82 8.695 1.26 15.063l-5.514 23h-12.066l5.344-22.516c.326-1.406.582-2.765.771-4.093.191-1.316.18-2.476-.043-3.48-.213-.992-.715-1.804-1.494-2.433-.791-.619-1.986-.93-3.607-.93-1.563 0-3.153.168-4.776.492l-7.857 32.959h-12.071zm-190.827 31.831c1.89 0 3.671-.465 5.344-1.378 1.678-.914 3.126-2.148 4.339-3.685 1.213-1.544 2.173-3.283 2.873-5.226s1.054-3.97 1.054-6.079c0-2.591-.433-4.612-1.296-6.073-.863-1.455-2.46-2.187-4.779-2.187-.76 0-1.739.145-2.953.404-1.218.275-2.308.846-3.285 1.705l-5.342 22.188c.322.057.607.111.85.162.238.055.501.094.763.121.277.031.594.047.977.047s.861.001 1.455.001zm140.948-24.703c-1.777 0-3.348.516-4.693 1.535-1.35 1.031-2.484 2.327-3.398 3.89-.924 1.57-1.609 3.282-2.072 5.143-.459 1.865-.684 3.628-.684 5.303 0 2.703.436 4.808 1.293 6.323.869 1.507 2.43 2.265 4.699 2.265 1.783 0 3.346-.512 4.699-1.542 1.342-1.023 2.477-2.32 3.398-3.886.918-1.562 1.609-3.279 2.072-5.143.453-1.859.684-3.632.684-5.304 0-2.696-.434-4.806-1.299-6.319-.864-1.507-2.432-2.265-4.699-2.265zm-96.508-14.255c-1.673 0-3.19-.498-4.536-1.496-1.357-.992-2.029-2.519-2.029-4.577 0-1.132.23-2.194.686-3.196.463-1 1.068-1.861 1.826-2.593.757-.726 1.634-1.306 2.63-1.743 1.002-.43 2.068-.645 3.204-.645 1.672 0 3.181.498 4.532 1.496 1.346 1.003 2.023 2.53 2.023 4.577 0 1.136-.229 2.202-.689 3.202-.457 1-1.062 1.861-1.82 2.593-.751.727-1.636 1.305-2.63 1.738-1.003.437-2.065.644-3.197.644zm133.371 0c-1.673 0-3.189-.498-4.532-1.496-1.35-.992-2.028-2.519-2.028-4.577 0-1.132.233-2.194.69-3.196.457-1 1.066-1.861 1.824-2.593.753-.726 1.638-1.306 2.632-1.743.996-.43 2.062-.645 3.194-.645 1.676 0 3.19.498 4.538 1.496 1.349 1.003 2.03 2.53 2.03 4.577 0 1.136-.242 2.202-.695 3.202s-1.062 1.861-1.817 2.593c-.76.727-1.634 1.305-2.63 1.738-1.004.437-2.068.644-3.206.644z" fill="#4d4d4d" transform="translate(289.607 317.505)"/></g>
</svg>
